<?xml version="1.0" standalone="no"?>
<!DOCTYPE svg PUBLIC "-//W3C//DTD SVG 1.1//EN" "http://www.w3.org/Graphics/SVG/1.1/DTD/svg11.dtd">
<svg xmlns="http://www.w3.org/2000/svg" version="1.0" width="200" height="105" viewBox="0 0 200 105" preserveAspectRatio="xMidYMid" id="alclogo">
  <path id="path12" d="m 25.852606,84.912538 -3.767158,4.612722 h 3.050956 l 2.161226,-2.571388 2.173846,2.571388 h 3.098281 L 28.8026,84.912538 Z m 37.24565,1.407175 v 18.271047 h 4.051113 l 0.17353,-0.65943 c 0.50096,0.29756 1.031249,0.52499 1.587002,0.68151 0.555752,0.15651 1.201428,0.23659 1.937214,0.23659 1.714223,0 3.141778,-0.65527 4.284592,-1.96247 1.150643,-1.3072 1.725824,-2.99592 1.725824,-5.070191 0,-2.113431 -0.45021,-3.771636 -1.35037,-4.969246 -0.900163,-1.205435 -2.181935,-1.807865 -3.849191,-1.807865 -0.884509,0 -1.669537,0.161975 -2.35053,0.482739 -0.673164,0.320946 -1.33486,0.739107 -1.984541,1.255727 v -6.458441 z m 16.693494,0 v 3.205547 h 4.464425 v -3.205547 z m 35.54191,0.422772 c -1.12717,0 -2.0997,0.124965 -2.9216,0.375453 -0.81406,0.242658 -1.46454,0.563089 -1.94984,0.962292 -0.46965,0.38355 -0.82212,0.820913 -1.05694,1.306198 -0.23484,0.47749 -0.35338,0.98862 -0.35338,1.536541 0,0.461811 0.0593,0.878365 0.17669,1.246234 0.11737,0.3679 0.28084,0.699583 0.49219,0.997021 0.21918,0.31309 0.47871,0.601489 0.77615,0.867625 0.29743,0.266016 0.61146,0.520895 0.94021,0.763555 -0.36007,0.195643 -0.73978,0.429595 -1.13898,0.703557 -0.3992,0.2739 -0.75168,0.604006 -1.05695,0.987558 -0.32094,0.391378 -0.58046,0.835169 -0.77615,1.32828 -0.19568,0.493143 -0.29343,1.069972 -0.29343,1.735277 0,1.604634 0.61365,2.907234 1.84256,3.909134 1.23674,0.99411 2.93505,1.49235 5.09544,1.49235 1.0489,0 2.04541,-0.15226 2.98471,-0.45747 0.94713,-0.3053 1.81071,-0.76671 2.59346,-1.38506 l 1.63117,1.47973 h 5.5908 v -0.2366 l -4.4739,-3.90913 c 0.54793,-0.555772 0.97732,-1.255906 1.29043,-2.101267 0.31309,-0.845361 0.4701,-1.729759 0.4701,-2.653437 V 94.38728 h -4.37924 v 3.779797 l -3.59364,-3.158228 c 0.86887,-0.2739 1.55616,-0.58799 2.05712,-0.940209 0.50096,-0.352247 0.90312,-0.731978 1.2084,-1.138978 0.28177,-0.38358 0.47245,-0.790519 0.57422,-1.221025 0.1096,-0.430506 0.16406,-0.823096 0.16406,-1.18314 0,-0.540097 -0.12974,-1.043158 -0.38807,-1.504998 -0.25049,-0.469665 -0.61418,-0.867016 -1.09165,-1.195759 -0.50879,-0.344423 -1.13365,-0.610376 -1.87727,-0.798224 -0.74362,-0.187756 -1.58955,-0.28391 -2.53669,-0.28391 z m 26.47737,0 c -2.81008,0 -5.01308,0.818698 -6.6099,2.454638 -1.5968,1.628117 -2.39469,3.847166 -2.39469,6.657209 0,2.786627 0.79789,5.000818 2.39469,6.644588 1.59682,1.63595 3.79982,2.45464 6.6099,2.45464 2.81791,0 5.02569,-0.81869 6.62249,-2.45464 1.59681,-1.64377 2.39471,-3.857961 2.39471,-6.644588 0,-2.810043 -0.80268,-5.029092 -2.40732,-6.657209 -1.60464,-1.63594 -3.80762,-2.454638 -6.60988,-2.454638 z m -129.471606,0.02426 c -1.330675,0 -2.557966,0.211417 -3.685126,0.634187 -1.119331,0.422651 -2.061368,1.020287 -2.820636,1.795215 -0.790578,0.806233 -1.393001,1.772378 -1.807857,2.899525 -0.414858,1.127179 -0.62155,2.384845 -0.62155,3.770301 0,1.487223 0.216277,2.796244 0.64679,3.931252 0.43834,1.134975 1.051986,2.083425 1.842564,2.842705 0.790577,0.75925 1.734251,1.32965 2.830101,1.71321 1.103676,0.38355 2.303731,0.57737 3.603092,0.57737 0.87668,0 1.565615,-0.0431 2.066575,-0.12922 0.50096,-0.0861 1.037682,-0.21112 1.609087,-0.37545 0.438341,-0.12528 0.856519,-0.27572 1.255722,-0.44804 0.3992,-0.17229 0.820534,-0.35638 1.258873,-0.55214 v -4.180463 h -0.470106 c -0.211342,0.187758 -0.4821,0.413705 -0.810853,0.672014 -0.328755,0.258429 -0.686023,0.498699 -1.069571,0.725669 -0.453994,0.28179 -0.949098,0.50449 -1.489195,0.66889 -0.532269,0.1644 -1.073783,0.24933 -1.621709,0.24933 -0.571406,0 -1.151383,-0.0913 -1.738443,-0.27117 -0.587064,-0.18776 -1.118993,-0.49709 -1.596469,-0.9276 C 9.251063,99.939629 8.860125,99.35967 8.547026,98.62387 8.241753,97.888101 8.08954,96.97164 8.08954,95.875796 c 0,-1.048891 0.140988,-1.93972 0.422779,-2.675489 0.289619,-0.7358 0.664541,-1.326978 1.126362,-1.773164 0.485303,-0.46175 1.015595,-0.791795 1.587002,-0.987529 0.571406,-0.20353 1.17383,-0.303019 1.807858,-0.303019 0.571407,0 1.108127,0.08645 1.609087,0.258735 0.500961,0.172287 0.964031,0.383672 1.394542,0.634157 0.422685,0.250543 0.800762,0.50206 1.129517,0.760369 0.336583,0.258431 0.61377,0.484194 0.832939,0.672042 h 0.517433 v -4.240423 c -0.320927,-0.156515 -0.699004,-0.324827 -1.129517,-0.504819 -0.422685,-0.187758 -0.89534,-0.35598 -1.419782,-0.50479 -0.500961,-0.133163 -1.048905,-0.237198 -1.643794,-0.315518 -0.587062,-0.08614 -1.248757,-0.129222 -1.984542,-0.129222 z m 102.782856,2.476753 c 0.12527,0 0.28866,0.01519 0.49218,0.0473 0.20352,0.03124 0.40213,0.108281 0.58999,0.233561 0.18006,0.125281 0.33227,0.30951 0.4575,0.552138 0.12528,0.234773 0.18615,0.555262 0.18615,0.962292 0,0.485315 -0.11378,0.9403 -0.34076,1.363011 -0.21918,0.414823 -0.54604,0.794553 -0.98437,1.138978 -0.60273,-0.454015 -1.09139,-0.897777 -1.46711,-1.328281 -0.37573,-0.430507 -0.56475,-0.875937 -0.56475,-1.337776 0,-0.352218 0.0608,-0.634218 0.18614,-0.845542 0.12528,-0.218999 0.27101,-0.382581 0.43539,-0.492202 0.2035,-0.133164 0.38777,-0.214753 0.55214,-0.245996 0.17224,-0.03124 0.32442,-0.04731 0.4575,-0.04731 z m 26.70136,0.798224 c 0.56358,0 1.10194,0.104052 1.61857,0.315517 0.52444,0.211417 0.98589,0.552595 1.38508,1.02223 0.39136,0.453982 0.71017,1.049981 0.95282,1.785781 0.24267,0.735801 0.36284,1.62663 0.36284,2.67549 0,0.978458 -0.10413,1.833981 -0.31551,2.561924 -0.21135,0.720119 -0.53655,1.344986 -0.9749,1.877276 -0.39138,0.46966 -0.85117,0.81736 -1.37562,1.04433 -0.52445,0.21931 -1.07403,0.32814 -1.65327,0.32814 -0.57924,0 -1.13195,-0.1089 -1.6564,-0.32814 -0.52445,-0.21899 -0.98424,-0.56042 -1.37562,-1.02225 -0.39137,-0.46184 -0.70702,-1.054662 -0.94968,-1.782606 -0.23482,-0.735802 -0.35336,-1.624992 -0.35336,-2.666057 0,-1.017556 0.12327,-1.908416 0.36598,-2.675489 0.25049,-0.774929 0.57092,-1.382151 0.96232,-1.820482 0.42267,-0.469635 0.8841,-0.806081 1.38506,-1.00961 0.50879,-0.20353 1.0503,-0.306054 1.62169,-0.306054 z m -47.436515,0.949673 c -2.26997,0 -4.04358,0.623239 -5.31945,1.867803 -1.26806,1.244563 -1.89936,2.958913 -1.89936,5.142776 0,2.168236 0.62966,3.877746 1.88989,5.130166 1.26805,1.24456 3.04329,1.8678 5.32892,1.8678 2.28563,0 4.05922,-0.62324 5.31945,-1.8678 1.268045,-1.25242 1.902505,-2.96193 1.902505,-5.130166 0,-2.168211 -0.62966,-3.877738 -1.889885,-5.130158 -1.2524,-1.252391 -3.03079,-1.880421 -5.33207,-1.880421 z m 94.986645,0 c -2.26999,0 -4.04358,0.623239 -5.31946,1.867803 -1.26804,1.244563 -1.89935,2.958913 -1.89935,5.142776 0,2.168236 0.62966,3.877746 1.88988,5.130166 1.26807,1.24456 3.0433,1.8678 5.32893,1.8678 2.28562,0 4.05923,-0.62324 5.31946,-1.8678 1.26805,-1.25242 1.90251,-2.96193 1.90251,-5.130166 0,-2.168211 -0.62966,-3.877738 -1.8899,-5.130158 -1.2524,-1.252391 -3.03079,-1.880421 -5.33207,-1.880421 z m -162.416888,0.03792 c -1.009745,0 -2.019123,0.0816 -3.02887,0.245998 -1.001921,0.156515 -1.724524,0.292705 -2.170693,0.410152 v 3.180311 h 0.388074 c 0.344411,-0.133163 0.910011,-0.318944 1.700584,-0.561602 0.790578,-0.250546 1.533991,-0.375452 2.230641,-0.375452 1.158468,0 2.036437,0.141045 2.631331,0.42277 0.594887,0.2739 0.892885,0.773867 0.892885,1.50181 v 0.06946 c -1.244573,0.07067 -2.447782,0.182599 -3.606251,0.331257 -1.158468,0.148635 -2.129383,0.398689 -2.912131,0.750936 -0.790578,0.352221 -1.399433,0.831319 -1.829944,1.441847 -0.430512,0.610557 -0.64679,1.397227 -0.64679,2.360008 0,1.20544 0.42297,2.19718 1.268341,2.97208 0.845367,0.77493 1.893207,1.16106 3.145608,1.16106 0.532271,0 1.020943,-0.0449 1.467109,-0.13893 0.446167,-0.0861 0.878721,-0.22537 1.29358,-0.41334 0.29744,-0.14074 0.613095,-0.33157 0.949676,-0.57422 0.336582,-0.24266 0.618564,-0.44925 0.845561,-0.62154 v 1.39772 h 4.193093 v -8.969907 c 0,-1.58116 -0.53672,-2.741096 -1.609088,-3.476898 -1.064538,-0.743597 -2.799674,-1.11374 -5.202716,-1.11374 z m 19.220712,0.0091 c -0.806231,0 -1.540062,0.161975 -2.205401,0.482739 -0.665334,0.320944 -1.363855,0.766345 -2.091813,1.337744 V 91.404417 H 37.652582 V 104.5895 h 4.227798 v -9.34535 c 0.313102,-0.187755 0.665576,-0.365654 1.056952,-0.530056 0.391376,-0.172286 0.793536,-0.258734 1.208392,-0.258734 0.516615,0 0.91714,0.06582 1.198928,0.198676 0.289615,0.125281 0.505888,0.330289 0.646792,0.612076 0.140902,0.281787 0.227402,0.650294 0.258705,1.104276 0.03132,0.446157 0.04416,0.989319 0.04416,1.631181 v 6.587811 h 4.253041 v -9.34535 c 0.485304,-0.281787 0.893895,-0.481981 1.230478,-0.599457 0.336582,-0.125281 0.682628,-0.189273 1.034864,-0.189273 0.524442,0 0.931398,0.06886 1.221014,0.202012 0.289612,0.12528 0.501092,0.327135 0.634169,0.60892 0.140902,0.281787 0.22261,0.645503 0.246085,1.09166 0.03131,0.446157 0.04733,0.99411 0.04733,1.643797 v 6.587811 h 4.249885 v -8.584979 c 0,-1.60464 -0.373285,-2.831913 -1.116897,-3.68513 -0.735783,-0.853186 -1.815658,-1.280961 -3.240261,-1.280961 -0.767092,0 -1.548971,0.205045 -2.347376,0.612104 -0.798405,0.407029 -1.618744,0.966176 -2.464112,1.678497 -0.37572,-0.751452 -0.896426,-1.320213 -1.561761,-1.703763 C 47.815425,91.23392 47.046409,91.03843 46.177561,91.03843 Z m 133.544786,0.318671 c -0.57922,0 -1.21367,0.131351 -1.90249,0.397535 -0.6888,0.25843 -1.49794,0.78861 -2.42941,1.587014 V 91.40446 h -4.2278 v 13.18504 h 4.2278 v -8.831066 c 0.53228,-0.187755 1.03052,-0.319276 1.49235,-0.397534 0.46183,-0.07825 0.99375,-0.11678 1.59648,-0.11678 0.26613,0 0.5978,0.01208 0.997,0.04427 0.3992,0.03124 0.68762,0.07917 0.86765,0.141965 h 0.3786 v -4.025881 c -0.14082,-0.01519 -0.3075,-0.0273 -0.49534,-0.03459 -0.18784,-0.0091 -0.35608,-0.01209 -0.50483,-0.01209 z m -99.810736,0.04733 V 104.5895 h 4.224641 V 91.404429 Z m 74.014856,0 v 8.581819 c 0,1.635945 0.39095,2.872805 1.17369,3.710365 0.79059,0.83754 1.91372,1.2557 3.36962,1.2557 0.90017,0 1.67563,-0.15227 2.3253,-0.45746 0.64969,-0.31313 1.36585,-0.76811 2.14859,-1.36299 v 1.45765 h 4.2278 V 91.404429 h -4.2278 v 9.345351 c -0.40701,0.25843 -0.82998,0.45376 -1.26833,0.58684 -0.43833,0.13315 -0.83569,0.19867 -1.19577,0.19867 -0.54009,0 -0.96305,-0.0658 -1.26833,-0.19867 -0.29745,-0.13317 -0.52016,-0.34455 -0.66889,-0.63417 -0.15654,-0.28966 -0.2591,-0.65332 -0.30604,-1.09165 -0.0391,-0.446189 -0.0599,-1.003727 -0.0599,-1.669036 v -6.537335 z m -59.539375,2.533535 c 0.40702,0 0.78674,0.06886 1.13898,0.202011 0.35224,0.133164 0.65503,0.36056 0.9055,0.681507 0.25049,0.313089 0.44595,0.73128 0.58685,1.255726 0.1409,0.524445 0.21138,1.171737 0.21138,1.946666 0,0.837533 -0.0705,1.497595 -0.21138,1.975087 -0.13306,0.469662 -0.33812,0.871812 -0.61208,1.208372 -0.24266,0.3053 -0.54065,0.52321 -0.89289,0.65628 -0.34442,0.12526 -0.70811,0.18927 -1.09166,0.18927 -0.44617,0 -0.84353,-0.0704 -1.19577,-0.21142 -0.34441,-0.14104 -0.64241,-0.36362 -0.89288,-0.66888 -0.25831,-0.32094 -0.45378,-0.74391 -0.58685,-1.268353 -0.13306,-0.53227 -0.19876,-1.157144 -0.19876,-1.877262 0,-0.806233 0.0722,-1.477516 0.22085,-2.009787 0.15654,-0.532272 0.3664,-0.950433 0.62469,-1.255726 0.28962,-0.328741 0.58925,-0.546649 0.90236,-0.656239 0.32093,-0.109502 0.68462,-0.167131 1.09166,-0.167131 z m 94.986645,0 c 0.40703,0 0.78674,0.06886 1.13898,0.202011 0.35224,0.133164 0.65502,0.36056 0.90552,0.681507 0.25047,0.313089 0.44593,0.73128 0.58683,1.255726 0.14081,0.524445 0.21139,1.171737 0.21139,1.946666 0,0.837533 -0.0705,1.497595 -0.21139,1.975087 -0.13305,0.469662 -0.33812,0.871812 -0.6121,1.208372 -0.24263,0.3053 -0.54063,0.52321 -0.89287,0.65628 -0.34441,0.12526 -0.7081,0.18927 -1.09164,0.18927 -0.44618,0 -0.84354,-0.0704 -1.19579,-0.21142 -0.3444,-0.14104 -0.64241,-0.36362 -0.89289,-0.66888 -0.25831,-0.32094 -0.45376,-0.74391 -0.58682,-1.268353 -0.13305,-0.53227 -0.1988,-1.157144 -0.1988,-1.877262 0,-0.806233 0.0721,-1.477516 0.22086,-2.009787 0.15654,-0.532272 0.3664,-0.950433 0.62471,-1.255726 0.28962,-0.328741 0.58925,-0.546649 0.90235,-0.656239 0.32094,-0.109502 0.68462,-0.167131 1.09166,-0.167131 z M 69.764927,94.231218 c 1.025399,0 1.739935,0.318793 2.139137,0.952828 0.399204,0.634035 0.599466,1.539242 0.599466,2.713343 0,1.315026 -0.275538,2.298801 -0.823474,2.956311 -0.547927,0.65751 -1.382643,0.98755 -2.501973,0.98755 -0.38355,0 -0.710422,-0.0212 -0.984384,-0.06 -0.273961,-0.0391 -0.56553,-0.1113 -0.8708,-0.22082 v -6.622498 c 0.383545,-0.226887 0.788864,-0.399931 1.211547,-0.517409 0.422686,-0.125266 0.831277,-0.189273 1.230481,-0.189273 z m 43.842903,2.445176 5.01341,4.448656 c -0.3992,0.30523 -0.80616,0.51195 -1.22101,0.62154 -0.40704,0.1016 -0.87489,0.15469 -1.40717,0.15469 -0.36789,0 -0.74596,-0.064 -1.12951,-0.18927 -0.38355,-0.12529 -0.73124,-0.31428 -1.04434,-0.56476 -0.29744,-0.24266 -0.5474,-0.55187 -0.7509,-0.9276 -0.2035,-0.383551 -0.30605,-0.835376 -0.30605,-1.359821 0,-0.493142 0.10256,-0.941726 0.30605,-1.340929 0.20349,-0.407059 0.38297,-0.685875 0.53952,-0.842388 z M 29.575593,98.40227 v 2.74492 c -0.328752,0.28178 -0.713262,0.50922 -1.151601,0.68151 -0.430512,0.17228 -0.855119,0.25873 -1.277804,0.25873 -0.532271,0 -0.923209,-0.0336 -1.17369,-0.10405 -0.250483,-0.0782 -0.466756,-0.19686 -0.64679,-0.35334 -0.187848,-0.15652 -0.306393,-0.31992 -0.353369,-0.4922 -0.04699,-0.17229 -0.0694,-0.39493 -0.0694,-0.66889 0,-0.41486 0.108955,-0.749662 0.328128,-1.000149 0.227007,-0.258432 0.552233,-0.453801 0.974918,-0.586838 0.344411,-0.109503 0.849099,-0.202619 1.514437,-0.280877 0.66534,-0.08614 1.283778,-0.151961 1.855183,-0.198677 z" fill="#000000" stroke="none"/>
  <path id="path9" fill="#ff0000" stroke="none" d="m 10.998575,3.3589042e-5 c -0.768027,0 -1.2425465,0.204680240958 -1.4197825,0.615253550958 -0.17724,0.41033086 -0.265027,1.48456316 -0.265027,3.22133906 0,1.2946276 0.295784,2.1325075 0.8865745,2.5114086 1.270198,0.7578995 1.905665,1.6240563 1.905665,2.6029325 0,0.6315505 -0.07316,1.3749007 -0.220856,2.2274747 L 3.6882685,66.928621 c -0.147697,1.105225 -0.710007,2.147784 -1.684811,3.126662 -1.033881,1.07365 -1.552295,2.478474 -1.552295,4.215201 0,1.452553 0.325048,2.176986 0.974917,2.176986 H 13.125094 c 0.502169,0 0.812588,-0.126101 0.930745,-0.378806 0.147697,-0.284224 0.220858,-1.071613 0.220858,-2.366287 0,-1.010453 -0.08778,-1.738087 -0.265028,-2.180139 -0.17724,-0.441856 -0.637126,-0.867319 -1.375612,-1.277845 -1.388356,-0.789426 -2.082349,-1.753266 -2.082349,-2.890018 0,-0.726277 0.120204,-1.548345 0.356526,-2.464121 0.05907,-0.189643 0.08834,-0.331271 0.08834,-0.425851 l 0.485881,-4.357169 h 11.077459 c 0.62033,4.041903 0.930747,6.615299 0.930747,7.720476 0,1.073651 -0.515259,1.958723 -1.549142,2.653424 -0.708947,0.50525 -1.139573,0.946233 -1.287269,1.325135 -0.147697,0.378804 -0.220856,1.327026 -0.220856,2.842729 0,1.199951 0.295783,1.798374 0.886576,1.798374 h 19.716058 c 0.679407,0 1.124661,-0.173152 1.331442,-0.520576 0.206762,-0.378805 0.309214,-1.37427 0.309214,-2.984697 0,-1.042026 -0.05852,-1.656261 -0.176681,-1.845712 -0.118142,-0.221169 -0.370055,-0.504521 -0.754057,-0.851898 -1.38836,-1.326248 -2.257931,-3.253883 -2.612403,-5.780086 L 31.866255,12.408854 C 31.689029,11.082602 31.513438,9.7407816 31.336203,8.3829554 30.922631,4.8779255 30.509812,2.6037423 30.096258,1.5617156 29.682705,0.5196888 28.956295,-6.35e-5 27.922413,-6.35e-5 Z m 156.867135,0 c -0.76804,0 -1.2394,0.204680240958 -1.41662,0.615253550958 -0.17724,0.41033086 -0.26504,1.48456316 -0.26504,3.22133906 0,1.2946276 0.2958,2.1325075 0.88657,2.5114086 1.27018,0.7578995 1.90252,1.6240563 1.90252,2.6029325 0,0.6315505 -0.0732,1.3749007 -0.22089,2.2274747 l -8.19687,55.750179 c -0.14765,1.105225 -0.70999,2.147784 -1.68481,3.126662 -1.03386,1.07365 -1.54913,2.478474 -1.54913,4.215201 0,1.452553 0.32505,2.176986 0.97492,2.176986 h 11.69584 c 0.50218,0 0.8126,-0.126101 0.93074,-0.378806 0.14765,-0.284224 0.22402,-1.071613 0.22402,-2.366287 0,-1.010453 -0.0909,-1.738087 -0.26822,-2.180139 -0.17721,-0.441856 -0.63395,-0.867319 -1.37245,-1.277845 -1.38836,-0.789426 -2.08235,-1.753266 -2.08235,-2.890018 0,-0.726277 0.11694,-1.548345 0.35338,-2.464121 0.0591,-0.189643 0.0883,-0.331271 0.0883,-0.425851 l 0.48903,-4.357169 h 11.07748 c 0.62032,4.041903 0.93074,6.615299 0.93074,7.720476 0,1.073651 -0.51843,1.958723 -1.55228,2.653424 -0.70896,0.50525 -1.13642,0.946233 -1.28414,1.325135 -0.14765,0.378804 -0.22087,1.327026 -0.22087,2.842729 0,1.199951 0.29578,1.798374 0.88658,1.798374 h 19.71606 c 0.6794,0 1.12151,-0.173152 1.32828,-0.520576 0.20677,-0.378805 0.31234,-1.37427 0.31234,-2.984697 0,-1.042026 -0.0584,-1.656261 -0.17668,-1.845712 -0.11809,-0.221169 -0.37006,-0.504521 -0.75406,-0.851898 -1.38836,-1.326248 -2.26108,-3.253883 -2.61555,-5.780086 L 188.73642,12.408854 C 188.55917,11.082602 188.38044,9.7407816 188.20321,8.3829554 187.78964,4.8779255 187.37683,2.6037423 186.96328,1.5617156 186.54969,0.5196888 185.82647,-6.35e-5 184.79259,-6.35e-5 Z M 17.245621,17.857765 22.076038,54.658517 h -9.749177 z m 156.870269,0 4.82729,36.800752 h -9.74605 z M 68.92573,24.344579 c -1.654204,0 -3.337983,0.370559 -5.051271,1.107458 -1.713286,0.736752 -2.571383,1.800362 -2.571383,3.189765 0,1.74725 1.221114,2.618694 3.663038,2.618694 1.89052,0 3.574304,-0.430701 5.051274,-1.29356 1.496667,-0.884151 2.246414,-1.958288 2.246414,-3.22134 0,-1.599949 -1.112769,-2.401017 -3.338072,-2.401017 z m -22.836421,1.138984 c -0.827104,0 -1.239945,0.336122 -1.239945,1.009626 v 1.577544 c 0,0.79995 0.336891,1.380572 1.00647,1.738424 0.531708,0.252697 0.795079,0.746113 0.795079,1.482914 v 39.126058 c 0,0.505202 -0.04982,0.851704 -0.148278,1.041203 -0.09845,0.168304 -0.344423,0.357463 -0.738286,0.567914 -0.610479,0.357947 -0.914971,0.903844 -0.914971,1.640596 v 1.801574 c 0,0.652602 0.304497,0.978054 0.914971,0.978054 h 10.840833 c 0.886185,0 1.331444,-0.325452 1.331444,-0.978054 v -1.801574 c 0,-0.547253 -0.207988,-0.904231 -0.621551,-1.072729 -0.590789,-0.231356 -0.886577,-0.830022 -0.886577,-1.798374 V 26.682494 c 0,-0.631646 -0.07909,-0.988625 -0.236616,-1.072727 -0.157536,-0.0839 -0.482599,-0.126116 -0.97492,-0.126116 z m 43.069908,7.389203 c -3.50534,0 -6.35171,0.850392 -8.537626,2.555595 -2.166223,1.705152 -3.249727,3.905854 -3.249727,6.600409 0,2.863002 1.250379,4.294066 3.751384,4.294066 1.220965,0 2.362989,-0.210015 3.426409,-0.631016 1.0831,-0.441856 1.77432,-0.967041 2.06973,-1.577543 0.31511,-0.610501 0.47326,-1.632107 0.47326,-3.06356 0,-2.547252 0.87551,-3.820781 2.62818,-3.820781 1.28003,0 1.91828,0.843069 1.91828,2.527172 v 6.092442 c -1.55574,0.79995 -3.51475,1.685072 -5.8779,2.653423 -3.721967,1.557802 -6.222725,3.26184 -7.502766,5.114391 -1.280039,1.831453 -1.918282,5.127242 -1.918282,9.88485 0,4.757604 0.67936,8.186727 2.038174,10.291831 1.378509,2.084103 3.316956,3.126712 5.817954,3.126712 1.12251,0 2.21471,-0.2624 3.27813,-0.788797 1.06342,-0.526251 2.45141,-1.736872 4.16469,-3.631475 0.57109,1.747254 1.37067,2.926346 2.3947,3.536847 1.02404,0.589403 2.30368,0.883425 3.83973,0.883425 1.26035,0 2.302723,-0.146969 3.129833,-0.441858 0.84679,-0.294894 1.37983,-0.609725 1.59647,-0.946526 0.21661,-0.357948 0.32496,-0.956323 0.32496,-1.798421 0,-0.610357 -0.19615,-1.075446 -0.59,-1.391391 -0.5514,-0.484055 -0.84719,-0.79903 -0.88657,-0.946478 V 42.565012 c 0,-1.915702 -0.55361,-3.672266 -1.656423,-5.27217 -1.10281,-1.5999 -2.57859,-2.736991 -4.42972,-3.410594 -1.83145,-0.6737 -3.89881,-1.009627 -6.20288,-1.009627 z m 35.595553,0 c -3.01302,0 -5.69251,1.578029 -8.03598,4.735732 v -3.315967 c 0,-0.399661 -0.0498,-0.66235 -0.14827,-0.788747 -0.0985,-0.126576 -0.35315,-0.18916 -0.76668,-0.18916 h -9.62929 c -0.5514,0 -0.82663,0.325451 -0.82663,0.978051 v 1.675373 c 0,0.484055 0.18743,0.820128 0.5616,1.009627 0.66956,0.336608 1.00331,0.872268 1.00331,1.609069 v 30.881851 c 0,1.073797 -0.0704,1.769903 -0.20821,2.085511 -0.13784,0.31575 -0.44234,0.651727 -0.91497,1.009626 -0.3545,0.252696 -0.53006,0.686261 -0.53006,1.296713 v 1.167406 c 0,0.631453 0.0672,1.030434 0.20509,1.198932 0.13784,0.147454 0.4629,0.220687 0.97492,0.220687 h 10.48746 c 0.96496,0 1.44502,-0.356979 1.44502,-1.07273 v -1.60907 c 0,-0.673746 -0.20485,-1.138837 -0.6184,-1.391388 -0.68924,-0.421002 -1.03485,-1.008996 -1.03485,-1.766848 V 41.145346 c 0.96495,-0.926252 1.86102,-1.388238 2.68812,-1.388238 1.26037,0 1.8899,0.818963 1.8899,2.460967 v 30.030004 c 0,1.726202 0.59157,3.125739 1.77315,4.199391 h 8.301 c 0.47265,0 0.77713,-0.09459 0.91496,-0.28374 0.15752,-0.189645 0.23662,-0.766921 0.23662,-1.735321 0,-1.220807 -0.2254,-1.979871 -0.67834,-2.274765 -0.49232,-0.357948 -0.73829,-0.872365 -0.73829,-1.546016 V 40.356793 c 0,-2.147252 -0.54175,-3.927923 -1.62485,-5.338376 -1.08311,-1.431501 -2.65855,-2.145457 -4.72631,-2.145457 z m 22.18333,0 c -2.40253,0 -4.41139,0.829441 -6.0262,2.492494 -1.59512,1.64205 -2.95385,4.157679 -4.07636,7.546933 -1.12249,3.368204 -1.6848,7.601596 -1.6848,12.696003 0,6.357506 0.95774,11.346858 2.86797,14.967712 1.9299,3.620805 4.41882,5.692345 7.47122,6.218646 -1.18158,0.294893 -1.77001,0.927852 -1.77001,1.896202 0,0.526252 0.29266,0.988236 0.88342,1.388237 0.49234,0.315752 0.7383,0.641252 0.7383,0.978053 0,0.8421 -0.60898,1.380718 -1.82995,1.612222 -0.70894,0.1261 -1.06326,0.409844 -1.06326,0.851896 0,0.526301 0.56231,0.788747 1.6848,0.788747 1.63453,0 2.96399,-0.40936 3.98802,-1.230459 1.02404,-0.799952 1.53337,-1.811082 1.53337,-3.032033 0,-1.620953 -0.72602,-2.674038 -2.18331,-3.158237 2.56009,-0.147454 4.63614,-1.347447 6.23126,-3.599951 1.61483,-2.252502 2.4231,-5.083154 2.4231,-8.493458 0,-0.905202 -0.12024,-1.535151 -0.35652,-1.893002 -0.23631,-0.378804 -0.81604,-0.567916 -1.74163,-0.567916 -0.92554,0 -1.58436,0.105245 -1.97822,0.315266 -0.37415,0.2105 -0.5616,0.871929 -0.5616,1.987679 l 0.0287,0.883424 c 0,2.020952 -0.27523,3.696665 -0.82664,5.022865 -0.5317,1.305202 -1.29015,1.956153 -2.2748,1.956153 -0.72863,0 -1.29964,-0.283254 -1.7132,-0.851849 -0.39383,-0.589449 -0.59,-1.254079 -0.59,-1.99088 V 39.059594 c 0,-0.526251 0.16688,-1.00924 0.50167,-1.451339 0.33474,-0.441857 0.73891,-0.662543 1.21154,-0.662543 0.49232,0 0.92573,0.18916 1.29987,0.567915 0.37414,0.378805 0.56162,0.840887 0.56162,1.388238 0,0.526299 -0.0791,1.24336 -0.23662,2.14861 -0.11809,0.778852 -0.17667,1.461329 -0.17667,2.05078 0,1.389402 0.3045,2.547494 0.91496,3.473747 0.63018,0.926251 1.52622,1.391388 2.68813,1.391388 1.12248,0 1.96004,-0.486138 2.51145,-1.454491 0.55139,-0.968352 0.82662,-2.147444 0.82662,-3.536848 0,-2.652454 -0.83755,-4.996965 -2.51145,-7.038966 -1.6542,-2.042002 -3.909,-3.06356 -6.76447,-3.06356 z m -85.101818,0.441858 c -0.787718,0 -1.183154,0.346307 -1.183154,1.041154 v 2.085509 c 0,0.505055 0.178721,0.809554 0.53321,0.91495 0.846793,0.252697 1.268338,0.987558 1.268338,2.208558 v 31.484497 c 0,0.6105 -0.313208,1.030531 -0.943367,1.262033 -0.512016,0.189645 -0.769837,0.854081 -0.769837,1.990832 0,0.947351 0.04129,1.535346 0.119873,1.766848 0.07876,0.210499 0.254358,0.336607 0.530053,0.378802 H 72.85378 c 0.531714,0 0.844908,-0.115442 0.943367,-0.347276 0.09845,-0.231357 0.148277,-0.924505 0.148277,-2.082356 0,-1.010598 -0.354315,-1.66475 -1.063259,-1.959305 -0.295378,-0.126114 -0.470978,-0.262883 -0.530052,-0.410329 -0.05907,-0.147455 -0.08834,-0.4729 -0.08834,-0.978101 V 34.355535 c 0,-0.694702 -0.336894,-1.041154 -1.006473,-1.041154 z m 29.802826,16.639833 v 16.16975 c 0,2.694602 -0.75845,4.041661 -2.27481,4.041661 -0.86648,0 -1.47546,-0.444283 -1.82994,-1.328288 -0.3545,-0.905201 -0.5332,-3.050225 -0.5332,-6.439478 0,-4.610256 0.2167,-7.570019 0.64995,-8.875221 0.43325,-1.326251 1.7627,-2.515821 3.988,-3.568424 z"/>
</svg>